{
  "accessors": [
    {
      "bufferView": 1,
      "componentType": 5126,
      "count": 1555,
      "max": [
        88.774223327636719,
        126.92399597167969,
        23.933994293212891
      ],
      "min": [
        -103.52244567871094,
        -128.124755859375,
        -24.247308731079102
      ],
      "type": "VEC3"
    },
    {
      "bufferView": 1,
      "byteOffset": 18660,
      "componentType": 5126,
      "count": 1555,
      "max": [
        0.99947363138198853,
        0.98544055223464966,
        0.99997848272323608
      ],
      "min": [
        -0.99829214811325073,
        -0.99531674385070801,
        -0.99974137544631958
      ],
      "type": "VEC3"
    },
    {
      "bufferView": 2,
      "componentType": 5126,
      "count": 1555,
      "max": [
        0.99998635053634644,
        0.99915045499801636,
        0.99601799249649048,
        1
      ],
      "min": [
        -0.99881607294082642,
        -0.94674026966094971,
        -0.99891883134841919,
        -1
      ],
      "type": "VEC4"
    },
    {
      "bufferView": 0,
      "componentType": 5125,
      "count": 6102,
      "max": [
        1554
      ],
      "min": [
        0
      ],
      "type": "SCALAR"
    }
  ],
  "asset": {
    "extras": {
      "author": "volkanongun (https://sketchfab.com/volkanongun)",
      "license": "CC-BY-4.0 (http://creativecommons.org/licenses/by/4.0/)",
      "source": "https://sketchfab.com/models/32fd638f4cc74161b205e7cd6d78b0d2",
      "title": "Low Poly Hand"
    },
    "generator": "Sketchfab-3.18.6",
    "version": "2.0"
  },
  "bufferViews": [
    {
      "buffer": 0,
      "byteLength": 24408,
      "byteOffset": 0,
      "name": "floatBufferViews",
      "target": 34963
    },
    {
      "buffer": 0,
      "byteLength": 37320,
      "byteOffset": 24408,
      "byteStride": 12,
      "name": "floatBufferViews",
      "target": 34962
    },
    {
      "buffer": 0,
      "byteLength": 24880,
      "byteOffset": 61728,
      "byteStride": 16,
      "name": "floatBufferViews",
      "target": 34962
    }
  ],
  "buffers": [
    {
      "byteLength": 86608,
      "uri": "scene.bin"
    }
  ],
  "materials": [
    {
      "doubleSided": true,
      "emissiveFactor": [
        0,
        0,
        0
      ],
      "name": "material_0",
      "pbrMetallicRoughness": {
        "baseColorFactor": [
          0.5,
          0.5,
          0.5,
          1
        ],
        "metallicFactor": 0,
        "roughnessFactor": 0.20000000000000001
      }
    }
  ],
  "meshes": [
    {
      "primitives": [
        {
          "attributes": {
            "NORMAL": 1,
            "POSITION": 0,
            "TANGENT": 2
          },
          "indices": 3,
          "material": 0,
          "mode": 4
        }
      ]
    }
  ],
  "nodes": [
    {
      "children": [
        1
      ],
      "name": "RootNode (gltf orientation matrix)",
      "rotation": [
        -0.70710678118654746,
        -0,
        -0,
        0.70710678118654757
      ]
    },
    {
      "children": [
        2
      ],
      "name": "RootNode (model correction matrix)"
    },
    {
      "children": [
        3
      ],
      "name": "a1ac87f799e3404382d8eac2bbacc71e.obj.cleaner.gles"
    },
    {
      "mesh": 0,
      "name": ""
    }
  ],
  "scene": 0,
  "scenes": [
    {
      "name": "OSG_Scene",
      "nodes": [
        0
      ]
    }
  ]
}

